<svg width="32" height="32" viewBox="0 0 32 32" fill="none" xmlns="http://www.w3.org/2000/svg">
<path d="M2.66699 15.9999C2.66699 10.9716 2.66699 8.45745 4.22909 6.89535C5.79119 5.33325 8.30534 5.33325 13.3337 5.33325H18.667C23.6953 5.33325 26.2095 5.33325 27.7715 6.89535C29.3337 8.45745 29.3337 10.9716 29.3337 15.9999C29.3337 21.0282 29.3337 23.5425 27.7715 25.1045C26.2095 26.6666 23.6953 26.6666 18.667 26.6666H13.3337C8.30534 26.6666 5.79119 26.6666 4.22909 25.1045C2.66699 23.5425 2.66699 21.0282 2.66699 15.9999Z" stroke="#9B9B9B"/>
<path d="M11.334 16C11.334 17.1046 10.4385 18 9.33398 18C8.22942 18 7.33398 17.1046 7.33398 16C7.33398 14.8954 8.22942 14 9.33398 14C10.4385 14 11.334 14.8954 11.334 16Z" fill="#9B9B9B"/>
<path d="M18.001 16C18.001 17.1046 17.1056 18 16.001 18C14.8964 18 14.001 17.1046 14.001 16C14.001 14.8954 14.8964 14 16.001 14C17.1056 14 18.001 14.8954 18.001 16Z" fill="#9B9B9B"/>
<path d="M24.667 16C24.667 17.1046 23.7716 18 22.667 18C21.5624 18 20.667 17.1046 20.667 16C20.667 14.8954 21.5624 14 22.667 14C23.7716 14 24.667 14.8954 24.667 16Z" fill="#9B9B9B"/>
</svg>
