<svg width="32" height="32" viewBox="0 0 32 32" fill="none" xmlns="http://www.w3.org/2000/svg">
<path d="M25.5005 0H6.50005C4.98744 0 3.75684 1.2306 3.75684 2.74322V4.39293C3.75684 4.65176 3.96667 4.8616 4.22551 4.8616C4.48434 4.8616 4.69417 4.65176 4.69417 4.39293V2.74322C4.69417 1.74745 5.50429 0.937339 6.50005 0.937339H25.5005C26.4963 0.937339 27.3064 1.74745 27.3064 2.74322V29.2568C27.3064 30.2525 26.4963 31.0627 25.5005 31.0627H6.50005C5.50429 31.0627 4.69417 30.2525 4.69417 29.2568V6.26761C4.69417 6.00878 4.48434 5.79894 4.22551 5.79894C3.96667 5.79894 3.75684 6.00878 3.75684 6.26761V29.2568C3.75684 30.7694 4.98744 32 6.50005 32H25.5005C27.0132 32 28.2438 30.7694 28.2438 29.2568V2.74322C28.2438 1.2306 27.0132 0 25.5005 0Z" fill="#9B9B9B"/>
<path d="M5.62305 3.83927V21.5474C5.62305 21.8062 5.83289 22.016 6.09172 22.016C6.35055 22.016 6.56039 21.8062 6.56039 21.5474V4.30794H25.4403V10.7352C25.4403 10.994 25.6501 11.2039 25.9089 11.2039C26.1678 11.2039 26.3776 10.994 26.3776 10.7352V3.83927C26.3776 3.58044 26.1678 3.37061 25.9089 3.37061H6.09172C5.83282 3.37061 5.62305 3.58044 5.62305 3.83927Z" fill="#9B9B9B"/>
<path d="M5.62305 26.9966C5.62305 27.2554 5.83289 27.4652 6.09172 27.4652H25.9089C26.1678 27.4652 26.3776 27.2554 26.3776 26.9966V12.6098C26.3776 12.351 26.1678 12.1411 25.9089 12.1411C25.6501 12.1411 25.4403 12.351 25.4403 12.6098V26.5279H6.56039V23.422C6.56039 23.1632 6.35055 22.9533 6.09172 22.9533C5.83289 22.9533 5.62305 23.1632 5.62305 23.422V26.9966Z" fill="#9B9B9B"/>
<path d="M14.5723 29.1531C14.5723 29.9404 15.2127 30.5809 16 30.5809C16.7873 30.5809 17.4278 29.9404 17.4278 29.1531C17.4278 28.3659 16.7873 27.7253 16 27.7253C15.2127 27.7253 14.5723 28.3659 14.5723 29.1531ZM16.4904 29.1531C16.4904 29.4235 16.2704 29.6435 16 29.6435C15.7296 29.6435 15.5096 29.4235 15.5096 29.1531C15.5096 28.8827 15.7296 28.6627 16 28.6627C16.2704 28.6627 16.4904 28.8827 16.4904 29.1531Z" fill="#9B9B9B"/>
<path d="M18.0247 2.61312C18.2836 2.61312 18.4934 2.40328 18.4934 2.14445C18.4934 1.88562 18.2836 1.67578 18.0247 1.67578H15.8886C15.6298 1.67578 15.4199 1.88562 15.4199 2.14445C15.4199 2.40328 15.6298 2.61312 15.8886 2.61312H18.0247Z" fill="#9B9B9B"/>
<path d="M14.1005 2.61117C14.3593 2.61117 14.5692 2.40134 14.5692 2.1425C14.5692 1.88366 14.3593 1.67383 14.1005 1.67383C13.8417 1.67383 13.6318 1.88366 13.6318 2.1425C13.6318 2.40134 13.8417 2.61117 14.1005 2.61117Z" fill="#9B9B9B"/>
</svg>
